<svg width="35" height="35" viewBox="0 0 35 35" fill="none" xmlns="http://www.w3.org/2000/svg">
<path d="M24.6094 13.6719C26.4216 13.6719 27.8906 12.2028 27.8906 10.3906C27.8906 8.57844 26.4216 7.10938 24.6094 7.10938C22.7972 7.10938 21.3281 8.57844 21.3281 10.3906C21.3281 12.2028 22.7972 13.6719 24.6094 13.6719Z" fill="#A83229"/>
<path d="M22.4219 34.4531H3.82812L13.125 25.1562L22.4219 34.4531Z" fill="#4A9BF6"/>
<path d="M34.4531 3.82812V31.1719C34.4531 32.0421 34.1074 32.8767 33.4921 33.4921C32.8767 34.1074 32.0421 34.4531 31.1719 34.4531H28.9844L16.4062 21.875L20.568 17.7133C21.8275 19.356 23.1767 20.9279 24.6094 22.4219C24.6094 22.4219 32.2656 14.618 32.2656 10.3906C32.2663 9.16651 31.9718 7.96028 31.407 6.87422L34.4531 3.82812Z" fill="#D3D9F2"/>
<path d="M34.4533 3.82812L31.4072 6.87422C30.682 5.46538 29.5348 4.31822 28.126 3.59297L31.1721 0.546875C32.0423 0.546875 32.8769 0.892577 33.4923 1.50793C34.1076 2.12328 34.4533 2.95788 34.4533 3.82812Z" fill="#FFDF64"/>
<path d="M28.9844 34.4531H22.4219L13.125 25.1562L16.4062 21.875L28.9844 34.4531Z" fill="#F7F7FF"/>
<path d="M20.568 17.7132L16.4062 21.8749L13.125 25.1562L3.82812 34.453C2.95788 34.453 2.12328 34.1073 1.50793 33.492C0.892577 32.8766 0.546875 32.042 0.546875 31.1718L17.9867 13.7319C18.7317 15.1304 19.5953 16.4624 20.568 17.7132Z" fill="#FFDF64"/>
<path d="M31.1719 0.546875L28.1258 3.59297C26.9591 2.98819 25.6564 2.69408 24.3431 2.73898C23.0297 2.78387 21.7501 3.16625 20.6275 3.84928C19.5049 4.53231 18.5771 5.49296 17.9335 6.63867C17.2899 7.78439 16.9523 9.07654 16.9531 10.3906C17.0381 11.5687 17.3917 12.7117 17.9867 13.732L0.546875 31.1719V3.82812C0.546875 2.95788 0.892577 2.12328 1.50793 1.50793C2.12328 0.892577 2.95788 0.546875 3.82812 0.546875H31.1719Z" fill="#28BE77"/>
<path d="M31.407 6.8742C31.9718 7.96026 32.2663 9.16649 32.2656 10.3906C32.2656 14.6179 24.6094 22.4219 24.6094 22.4219C23.1767 20.9279 21.8275 19.3559 20.568 17.7133C19.5953 16.4624 18.7317 15.1305 17.9867 13.732C17.3917 12.7117 17.0381 11.5687 16.9531 10.3906C16.9546 8.67593 17.5315 7.01137 18.5916 5.66364C19.6517 4.31592 21.1334 3.36305 22.7995 2.95772C24.4656 2.55239 26.2195 2.71806 27.7802 3.4282C29.3409 4.13833 30.6181 5.35181 31.407 6.8742ZM27.8906 10.3906C27.8906 9.74163 27.6982 9.10724 27.3376 8.56764C26.9771 8.02804 26.4646 7.60747 25.8651 7.35912C25.2655 7.11077 24.6057 7.04579 23.9692 7.1724C23.3327 7.29901 22.7481 7.61152 22.2892 8.07041C21.8303 8.5293 21.5178 9.11396 21.3912 9.75046C21.2646 10.387 21.3295 11.0467 21.5779 11.6463C21.8262 12.2459 22.2468 12.7583 22.7864 13.1189C23.326 13.4794 23.9604 13.6719 24.6094 13.6719C25.4796 13.6719 26.3142 13.3261 26.9296 12.7108C27.5449 12.0954 27.8906 11.2608 27.8906 10.3906Z" fill="#D73D3F"/>
<path d="M6.01562 32.2656L3.82812 34.4531H22.4219L20.2344 32.2656H6.01562Z" fill="#3B7CC4"/>
<path d="M31.1719 32.2656H26.7969L28.9844 34.4531H31.1719C32.0421 34.4531 32.8767 34.1074 33.4921 33.4921C34.1074 32.8767 34.4531 32.0421 34.4531 31.1719V28.9844C34.4531 29.8546 34.1074 30.6892 33.4921 31.3046C32.8767 31.9199 32.0421 32.2656 31.1719 32.2656Z" fill="#AEB2D4"/>
<path d="M33.9707 4.31102C34.2864 4.82356 34.4535 5.41367 34.4536 6.01562V3.82812L33.9707 4.31102Z" fill="#B8BCE0"/>
<path d="M31.1719 2.73438C31.7344 2.73487 32.2874 2.88019 32.7775 3.15632C33.2676 3.43246 33.6784 3.83012 33.9702 4.31102L34.4531 3.82812C34.4531 2.95788 34.1074 2.12328 33.4921 1.50793C32.8767 0.892577 32.0421 0.546875 31.1719 0.546875L28.9844 2.73438H31.1719Z" fill="#FFB844"/>
<path d="M20.2344 32.2656L22.4219 34.4531H28.9844L26.7969 32.2656H20.2344Z" fill="#CACFE8"/>
<path d="M3.82812 32.2656C3.26558 32.2651 2.71263 32.1198 2.22253 31.8437C1.73242 31.5675 1.32165 31.1699 1.02977 30.689L0.546875 31.1719C0.546875 32.0421 0.892577 32.8767 1.50793 33.492C2.12328 34.1074 2.95788 34.4531 3.82812 34.4531L6.01562 32.2656H3.82812Z" fill="#FFB844"/>
<path d="M0.546875 28.9844V31.1719L1.02977 30.689C0.714103 30.1764 0.546932 29.5863 0.546875 28.9844ZM3.82812 2.73438H28.9844L31.1719 0.546875H3.82812C2.95788 0.546875 2.12328 0.892577 1.50793 1.50793C0.892577 2.12328 0.546875 2.95788 0.546875 3.82812V6.01562C0.546875 5.14538 0.892577 4.31078 1.50793 3.69543C2.12328 3.08008 2.95788 2.73438 3.82812 2.73438Z" fill="#1FA463"/>
<path d="M7.10972 12.0313C6.27733 12.0313 5.45852 11.8203 4.72987 11.4178C4.00123 11.0154 3.38654 10.4348 2.94331 9.7302C2.50007 9.02564 2.24277 8.22017 2.19546 7.38912C2.14815 6.55808 2.31238 5.72861 2.67278 4.9783C3.03319 4.22798 3.57801 3.58132 4.25628 3.09881C4.93455 2.61629 5.72411 2.31367 6.55113 2.21926C7.37814 2.12485 8.21559 2.24173 8.98516 2.55896C9.75473 2.87619 10.4313 3.38342 10.9515 4.0332L9.24253 5.40039C8.86887 4.9344 8.35291 4.60357 7.7735 4.45847C7.19409 4.31338 6.58311 4.36199 6.03394 4.59689C5.48476 4.83178 5.02761 5.24004 4.73235 5.75926C4.43708 6.27847 4.31995 6.88009 4.39885 7.47216C4.47776 8.06422 4.74835 8.61417 5.16929 9.03794C5.59022 9.46171 6.13834 9.73599 6.72986 9.81887C7.32139 9.90175 7.92378 9.78866 8.44496 9.49689C8.96615 9.20511 9.37747 8.75071 9.61604 8.20313H7.10972V6.01563H10.9378C11.2279 6.01563 11.5061 6.13086 11.7112 6.33598C11.9164 6.5411 12.0316 6.8193 12.0316 7.10938C12.03 8.41425 11.5109 9.66522 10.5883 10.5879C9.66556 11.5106 8.41459 12.0297 7.10972 12.0313Z" fill="#F7F7FF"/>
<path d="M24.6094 9.29668C25.2873 9.29745 25.9483 9.50817 26.5016 9.89988C27.0549 10.2916 27.4733 10.845 27.6992 11.4842C27.8762 10.989 27.9316 10.4585 27.8607 9.9374C27.7897 9.41632 27.5946 8.91992 27.2917 8.49002C26.9888 8.06013 26.5871 7.70932 26.1203 7.46718C25.6534 7.22503 25.1353 7.09863 24.6094 7.09863C24.0835 7.09863 23.5653 7.22503 23.0985 7.46718C22.6317 7.70932 22.2299 8.06013 21.927 8.49002C21.6241 8.91992 21.429 9.41632 21.3581 9.9374C21.2872 10.4585 21.3425 10.989 21.5195 11.4842C21.7455 10.845 22.1639 10.2916 22.7172 9.89988C23.2704 9.50817 23.9315 9.29745 24.6094 9.29668Z" fill="#91323C"/>
<path d="M17.0625 11.3257C16.9919 11.7394 16.9553 12.1583 16.9531 12.578C16.9726 13.2015 17.0961 13.8174 17.3184 14.4002L17.9867 13.7319C17.5743 12.9739 17.2635 12.1649 17.0625 11.3257Z" fill="#1FA463"/>
<path d="M32.1526 11.3394C31.2169 15.6848 24.6096 22.4218 24.6096 22.4218C23.1768 20.9278 21.8277 19.3559 20.5682 17.7132L19.6494 18.6319C19.9472 19.0609 20.2535 19.4839 20.5682 19.9007C21.8277 21.5434 23.1768 23.1153 24.6096 24.6093C24.6096 24.6093 32.2658 16.8054 32.2658 12.578C32.2621 12.1627 32.2243 11.7484 32.1526 11.3394Z" fill="#AEB2D4"/>
<path d="M17.9866 13.7319L17.3184 14.4002C17.5053 14.9216 17.7286 15.4293 17.9866 15.9194C18.4796 16.8597 19.0351 17.7659 19.6491 18.6319L20.5679 17.7132C19.5952 16.4624 18.7316 15.1304 17.9866 13.7319Z" fill="#FFB844"/>
</svg>
